<svg width="1211" height="155" viewBox="0 0 1211 155" fill="none" xmlns="http://www.w3.org/2000/svg">
<path d="M80.813 106.167L0.454 76.501V51.399L80.813 21.733V45.531L9.582 70.796V57.104L80.813 82.369V106.167ZM126.025 104.7L126.84 67.699L162.863 32.654H199.538L159.603 73.893L143.792 86.607L126.025 104.7ZM100.271 121V0.0539929H131.241V121H100.271ZM165.145 121L138.087 87.096L157.321 63.298L202.635 121H165.145ZM269.236 31.187C276.082 31.187 282.276 32.5997 287.818 35.425C293.36 38.1417 297.707 42.3797 300.858 48.139C304.118 53.8983 305.748 61.342 305.748 70.47V121H274.778V75.523C274.778 69.2203 273.474 64.6563 270.866 61.831C268.367 58.897 264.835 57.43 260.271 57.43C257.011 57.43 254.023 58.1907 251.306 59.712C248.589 61.1247 246.47 63.3523 244.949 66.395C243.428 69.4377 242.667 73.404 242.667 78.294V121H211.697V32.654H241.2V57.756L235.495 50.421C238.864 44.0097 243.482 39.2283 249.35 36.077C255.218 32.817 261.847 31.187 269.236 31.187ZM370.642 122.467C360.971 122.467 352.386 120.511 344.888 116.599C337.39 112.687 331.468 107.308 327.121 100.462C322.883 93.5073 320.764 85.5747 320.764 76.664C320.764 67.7533 322.883 59.875 327.121 53.029C331.468 46.183 337.39 40.8583 344.888 37.055C352.386 33.143 360.971 31.187 370.642 31.187C380.314 31.187 388.898 33.143 396.396 37.055C404.003 40.8583 409.925 46.183 414.163 53.029C418.401 59.875 420.52 67.7533 420.52 76.664C420.52 85.5747 418.401 93.5073 414.163 100.462C409.925 107.308 404.003 112.687 396.396 116.599C388.898 120.511 380.314 122.467 370.642 122.467ZM370.642 97.854C374.228 97.854 377.38 97.039 380.096 95.409C382.922 93.779 385.149 91.3883 386.779 88.237C388.409 84.977 389.224 81.1193 389.224 76.664C389.224 72.2087 388.409 68.4597 386.779 65.417C385.149 62.2657 382.922 59.875 380.096 58.245C377.38 56.615 374.228 55.8 370.642 55.8C367.165 55.8 364.014 56.615 361.188 58.245C358.472 59.875 356.244 62.2657 354.505 65.417C352.875 68.4597 352.06 72.2087 352.06 76.664C352.06 81.1193 352.875 84.977 354.505 88.237C356.244 91.3883 358.472 93.779 361.188 95.409C364.014 97.039 367.165 97.854 370.642 97.854ZM453.506 121L422.047 32.654H451.387L476.326 106.493H462.308L488.225 32.654H514.631L539.57 106.493H525.878L551.632 32.654H578.853L547.394 121H517.402L496.212 59.875H505.34L483.498 121H453.506ZM588.316 121V0.0539929H619.286V121H588.316ZM685.705 122.467C675.273 122.467 666.145 120.511 658.321 116.599C650.605 112.578 644.574 107.145 640.228 100.299C635.99 93.3443 633.871 85.466 633.871 76.664C633.871 67.862 635.935 60.038 640.065 53.192C644.303 46.2373 650.116 40.8583 657.506 37.055C664.895 33.143 673.208 31.187 682.445 31.187C691.138 31.187 699.071 32.98 706.243 36.566C713.415 40.0433 719.12 45.205 723.358 52.051C727.596 58.897 729.715 67.21 729.715 76.99C729.715 78.0767 729.66 79.3263 729.552 80.739C729.443 82.1517 729.334 83.4557 729.226 84.651H659.299V68.351H712.763L701.027 72.915C701.135 68.8943 700.375 65.417 698.745 62.483C697.223 59.549 695.05 57.267 692.225 55.637C689.508 54.007 686.302 53.192 682.608 53.192C678.913 53.192 675.653 54.007 672.828 55.637C670.111 57.267 667.992 59.6033 666.471 62.646C664.949 65.58 664.189 69.0573 664.189 73.078V77.805C664.189 82.1517 665.058 85.9007 666.797 89.052C668.644 92.2033 671.252 94.6483 674.621 96.387C677.989 98.017 682.01 98.832 686.683 98.832C691.029 98.832 694.724 98.2343 697.767 97.039C700.918 95.735 704.015 93.779 707.058 91.171L723.358 108.123C719.12 112.796 713.904 116.382 707.71 118.881C701.516 121.272 694.181 122.467 685.705 122.467ZM795.559 121V104.537L793.44 100.462V70.144C793.44 65.254 791.919 61.505 788.876 58.897C785.942 56.1803 781.215 54.822 774.695 54.822C770.457 54.822 766.165 55.5283 761.818 56.941C757.471 58.245 753.777 60.0923 750.734 62.483L740.302 41.456C745.301 38.196 751.277 35.6967 758.232 33.958C765.295 32.1107 772.304 31.187 779.259 31.187C793.603 31.187 804.687 34.5013 812.511 41.13C820.444 47.65 824.41 57.919 824.41 71.937V121H795.559ZM769.479 122.467C762.416 122.467 756.439 121.272 751.549 118.881C746.659 116.49 742.91 113.23 740.302 109.101C737.803 104.972 736.553 100.353 736.553 95.246C736.553 89.8127 737.911 85.14 740.628 81.228C743.453 77.2073 747.746 74.1647 753.505 72.1C759.264 69.9267 766.708 68.84 775.836 68.84H796.7V84.977H780.074C775.075 84.977 771.544 85.792 769.479 87.422C767.523 89.052 766.545 91.2253 766.545 93.942C766.545 96.6587 767.577 98.832 769.642 100.462C771.707 102.092 774.532 102.907 778.118 102.907C781.487 102.907 784.529 102.092 787.246 100.462C790.071 98.7233 792.136 96.1153 793.44 92.638L797.678 104.048C796.048 110.133 792.842 114.752 788.061 117.903C783.388 120.946 777.194 122.467 769.479 122.467ZM883.541 122.467C875.5 122.467 868.165 120.62 861.536 116.925C855.016 113.122 849.8 107.851 845.888 101.114C841.976 94.268 840.02 86.118 840.02 76.664C840.02 67.3187 841.976 59.2773 845.888 52.54C849.8 45.694 855.016 40.4237 861.536 36.729C868.165 33.0343 875.5 31.187 883.541 31.187C891.148 31.187 897.559 32.817 902.775 36.077C908.1 39.337 912.12 44.3357 914.837 51.073C917.554 57.8103 918.912 66.3407 918.912 76.664C918.912 87.2047 917.608 95.8437 915 102.581C912.392 109.318 908.48 114.317 903.264 117.577C898.048 120.837 891.474 122.467 883.541 122.467ZM890.061 97.854C893.538 97.854 896.635 97.039 899.352 95.409C902.177 93.779 904.405 91.3883 906.035 88.237C907.665 84.977 908.48 81.1193 908.48 76.664C908.48 72.2087 907.665 68.4597 906.035 65.417C904.405 62.2657 902.177 59.875 899.352 58.245C896.635 56.615 893.538 55.8 890.061 55.8C886.475 55.8 883.269 56.615 880.444 58.245C877.727 59.875 875.554 62.2657 873.924 65.417C872.294 68.4597 871.479 72.2087 871.479 76.664C871.479 81.1193 872.294 84.977 873.924 88.237C875.554 91.3883 877.727 93.779 880.444 95.409C883.269 97.039 886.475 97.854 890.061 97.854ZM909.458 121V105.841L909.621 76.664L907.991 47.487V0.0539929H938.961V121H909.458ZM1002.08 154.089C993.605 154.089 985.51 153.111 977.794 151.155C970.188 149.199 963.668 146.319 958.234 142.516L969.481 120.837C973.176 123.771 977.74 126.053 983.173 127.683C988.715 129.422 994.094 130.291 999.31 130.291C1007.68 130.291 1013.71 128.444 1017.4 124.749C1021.1 121.163 1022.95 115.893 1022.95 108.938V98.506L1024.58 73.73L1024.41 48.791V32.654H1053.92V104.863C1053.92 121.598 1049.41 133.986 1040.39 142.027C1031.37 150.068 1018.6 154.089 1002.08 154.089ZM996.702 116.436C988.878 116.436 981.652 114.697 975.023 111.22C968.503 107.634 963.233 102.69 959.212 96.387C955.3 89.9757 953.344 82.4233 953.344 73.73C953.344 65.0367 955.3 57.5387 959.212 51.236C963.233 44.8247 968.503 39.8803 975.023 36.403C981.652 32.9257 988.878 31.187 996.702 31.187C1004.2 31.187 1010.61 32.7083 1015.94 35.751C1021.26 38.685 1025.28 43.3033 1028 49.606C1030.82 55.9087 1032.24 63.95 1032.24 73.73C1032.24 83.51 1030.82 91.5513 1028 97.854C1025.28 104.157 1021.26 108.829 1015.94 111.872C1010.61 114.915 1004.2 116.436 996.702 116.436ZM1004.04 91.823C1007.73 91.823 1010.99 91.0623 1013.82 89.541C1016.75 88.0197 1019.03 85.9007 1020.66 83.184C1022.4 80.4673 1023.27 77.316 1023.27 73.73C1023.27 70.144 1022.4 66.9927 1020.66 64.276C1019.03 61.5593 1016.75 59.4947 1013.82 58.082C1010.99 56.5607 1007.73 55.8 1004.04 55.8C1000.34 55.8 997.028 56.5607 994.094 58.082C991.16 59.4947 988.824 61.5593 987.085 64.276C985.455 66.9927 984.64 70.144 984.64 73.73C984.64 77.316 985.455 80.4673 987.085 83.184C988.824 85.9007 991.16 88.0197 994.094 89.541C997.028 91.0623 1000.34 91.823 1004.04 91.823ZM1120.11 122.467C1109.67 122.467 1100.55 120.511 1092.72 116.599C1085.01 112.578 1078.98 107.145 1074.63 100.299C1070.39 93.3443 1068.27 85.466 1068.27 76.664C1068.27 67.862 1070.34 60.038 1074.47 53.192C1078.7 46.2373 1084.52 40.8583 1091.91 37.055C1099.3 33.143 1107.61 31.187 1116.85 31.187C1125.54 31.187 1133.47 32.98 1140.64 36.566C1147.82 40.0433 1153.52 45.205 1157.76 52.051C1162 58.897 1164.12 67.21 1164.12 76.99C1164.12 78.0767 1164.06 79.3263 1163.95 80.739C1163.84 82.1517 1163.74 83.4557 1163.63 84.651H1093.7V68.351H1147.16L1135.43 72.915C1135.54 68.8943 1134.78 65.417 1133.15 62.483C1131.62 59.549 1129.45 57.267 1126.63 55.637C1123.91 54.007 1120.7 53.192 1117.01 53.192C1113.31 53.192 1110.05 54.007 1107.23 55.637C1104.51 57.267 1102.39 59.6033 1100.87 62.646C1099.35 65.58 1098.59 69.0573 1098.59 73.078V77.805C1098.59 82.1517 1099.46 85.9007 1101.2 89.052C1103.05 92.2033 1105.65 94.6483 1109.02 96.387C1112.39 98.017 1116.41 98.832 1121.08 98.832C1125.43 98.832 1129.13 98.2343 1132.17 97.039C1135.32 95.735 1138.42 93.779 1141.46 91.171L1157.76 108.123C1153.52 112.796 1148.31 116.382 1142.11 118.881C1135.92 121.272 1128.58 122.467 1120.11 122.467ZM1191.44 67.862C1186.22 67.862 1181.82 66.1233 1178.23 62.646C1174.65 59.1687 1172.85 54.7677 1172.85 49.443C1172.85 43.901 1174.65 39.5 1178.23 36.24C1181.82 32.8713 1186.22 31.187 1191.44 31.187C1196.65 31.187 1201.05 32.8713 1204.64 36.24C1208.22 39.5 1210.02 43.901 1210.02 49.443C1210.02 54.7677 1208.22 59.1687 1204.64 62.646C1201.05 66.1233 1196.65 67.862 1191.44 67.862ZM1174.97 146.591L1187.2 104.211L1191.6 121.815C1186.16 121.815 1181.71 120.239 1178.23 117.088C1174.75 113.828 1173.02 109.481 1173.02 104.048C1173.02 98.3973 1174.75 93.942 1178.23 90.682C1181.82 87.422 1186.27 85.792 1191.6 85.792C1196.92 85.792 1201.32 87.4763 1204.8 90.845C1208.28 94.105 1210.02 98.506 1210.02 104.048C1210.02 105.569 1209.91 107.091 1209.69 108.612C1209.47 110.133 1208.98 111.981 1208.22 114.154C1207.46 116.327 1206.27 119.207 1204.64 122.793L1194.37 146.591H1174.97Z" fill="white" fill-opacity="0.05"/>
</svg>
