<svg width="888" height="143" viewBox="0 0 888 143" fill="none" xmlns="http://www.w3.org/2000/svg">
<path d="M80.813 94.167L0.454 64.501V39.399L80.813 9.733V33.531L9.582 58.796V45.104L80.813 70.369V94.167ZM155.854 110.467C148.356 110.467 141.945 108.837 136.62 105.577C131.295 102.208 127.22 97.2097 124.395 90.581C121.678 83.8437 120.32 75.259 120.32 64.827C120.32 54.2863 121.624 45.7017 124.232 39.073C126.84 32.3357 130.752 27.337 135.968 24.077C141.293 20.817 147.921 19.187 155.854 19.187C163.895 19.187 171.176 21.0887 177.696 24.892C184.325 28.5867 189.541 33.857 193.344 40.703C197.256 47.4403 199.212 55.4817 199.212 64.827C199.212 74.1723 197.256 82.268 193.344 89.114C189.541 95.96 184.325 101.23 177.696 104.925C171.176 108.62 163.895 110.467 155.854 110.467ZM100.271 140.622V20.654H129.774V35.65L129.611 64.827L131.241 94.167V140.622H100.271ZM149.334 85.854C152.811 85.854 155.908 85.039 158.625 83.409C161.45 81.779 163.678 79.3883 165.308 76.237C167.047 73.0857 167.916 69.2823 167.916 64.827C167.916 60.3717 167.047 56.5683 165.308 53.417C163.678 50.2657 161.45 47.875 158.625 46.245C155.908 44.615 152.811 43.8 149.334 43.8C145.857 43.8 142.705 44.615 139.88 46.245C137.163 47.875 134.936 50.2657 133.197 53.417C131.567 56.5683 130.752 60.3717 130.752 64.827C130.752 69.2823 131.567 73.0857 133.197 76.237C134.936 79.3883 137.163 81.779 139.88 83.409C142.705 85.039 145.857 85.854 149.334 85.854ZM213.607 109V20.654H243.11V46.408L238.709 39.073C241.317 32.4443 245.555 27.5 251.423 24.24C257.291 20.8713 264.409 19.187 272.776 19.187V47.06C271.363 46.8427 270.114 46.734 269.027 46.734C268.049 46.6253 266.962 46.571 265.767 46.571C259.464 46.571 254.357 48.3097 250.445 51.787C246.533 55.1557 244.577 60.6977 244.577 68.413V109H213.607ZM329.096 110.467C319.425 110.467 310.84 108.511 303.342 104.599C295.844 100.687 289.922 95.308 285.575 88.462C281.337 81.5073 279.218 73.5747 279.218 64.664C279.218 55.7533 281.337 47.875 285.575 41.029C289.922 34.183 295.844 28.8583 303.342 25.055C310.84 21.143 319.425 19.187 329.096 19.187C338.768 19.187 347.352 21.143 354.85 25.055C362.457 28.8583 368.379 34.183 372.617 41.029C376.855 47.875 378.974 55.7533 378.974 64.664C378.974 73.5747 376.855 81.5073 372.617 88.462C368.379 95.308 362.457 100.687 354.85 104.599C347.352 108.511 338.768 110.467 329.096 110.467ZM329.096 85.854C332.682 85.854 335.834 85.039 338.55 83.409C341.376 81.779 343.603 79.3883 345.233 76.237C346.863 72.977 347.678 69.1193 347.678 64.664C347.678 60.2087 346.863 56.4597 345.233 53.417C343.603 50.2657 341.376 47.875 338.55 46.245C335.834 44.615 332.682 43.8 329.096 43.8C325.619 43.8 322.468 44.615 319.642 46.245C316.926 47.875 314.698 50.2657 312.959 53.417C311.329 56.4597 310.514 60.2087 310.514 64.664C310.514 69.1193 311.329 72.977 312.959 76.237C314.698 79.3883 316.926 81.779 319.642 83.409C322.468 85.039 325.619 85.854 329.096 85.854ZM406.092 142.089C401.42 142.089 396.693 141.328 391.911 139.807C387.239 138.394 383.435 136.493 380.501 134.102L391.259 112.423C393.107 114.053 395.226 115.303 397.616 116.172C400.116 117.15 402.561 117.639 404.951 117.639C408.32 117.639 410.982 116.878 412.938 115.357C414.894 113.836 416.579 111.445 417.991 108.185L422.066 97.916L424.511 94.819L454.503 20.654H484.006L445.864 112.586C442.822 120.193 439.29 126.115 435.269 130.353C431.357 134.7 426.956 137.742 422.066 139.481C417.285 141.22 411.96 142.089 406.092 142.089ZM418.154 112.749L379.197 20.654H410.982L439.67 92.048L418.154 112.749ZM535.917 110.467C525.485 110.467 516.357 108.511 508.533 104.599C500.817 100.578 494.786 95.145 490.44 88.299C486.202 81.3443 484.083 73.466 484.083 64.664C484.083 55.862 486.147 48.038 490.277 41.192C494.515 34.2373 500.328 28.8583 507.718 25.055C515.107 21.143 523.42 19.187 532.657 19.187C541.35 19.187 549.283 20.98 556.455 24.566C563.627 28.0433 569.332 33.205 573.57 40.051C577.808 46.897 579.927 55.21 579.927 64.99C579.927 66.0767 579.872 67.3263 579.764 68.739C579.655 70.1517 579.546 71.4557 579.438 72.651H509.511V56.351H562.975L551.239 60.915C551.347 56.8943 550.587 53.417 548.957 50.483C547.435 47.549 545.262 45.267 542.437 43.637C539.72 42.007 536.514 41.192 532.82 41.192C529.125 41.192 525.865 42.007 523.04 43.637C520.323 45.267 518.204 47.6033 516.683 50.646C515.161 53.58 514.401 57.0573 514.401 61.078V65.805C514.401 70.1517 515.27 73.9007 517.009 77.052C518.856 80.2033 521.464 82.6483 524.833 84.387C528.201 86.017 532.222 86.832 536.895 86.832C541.241 86.832 544.936 86.2343 547.979 85.039C551.13 83.735 554.227 81.779 557.27 79.171L573.57 96.123C569.332 100.796 564.116 104.382 557.922 106.881C551.728 109.272 544.393 110.467 535.917 110.467ZM639.357 110.467C629.577 110.467 620.829 108.511 613.114 104.599C605.507 100.687 599.53 95.308 595.184 88.462C590.837 81.5073 588.664 73.5747 588.664 64.664C588.664 55.7533 590.837 47.875 595.184 41.029C599.53 34.183 605.507 28.8583 613.114 25.055C620.829 21.143 629.577 19.187 639.357 19.187C649.354 19.187 657.993 21.306 665.274 25.544C672.554 29.782 677.716 35.7587 680.759 43.474L656.798 55.699C654.733 51.5697 652.179 48.5813 649.137 46.734C646.094 44.778 642.78 43.8 639.194 43.8C635.608 43.8 632.348 44.615 629.414 46.245C626.48 47.875 624.143 50.2657 622.405 53.417C620.775 56.4597 619.96 60.2087 619.96 64.664C619.96 69.228 620.775 73.0857 622.405 76.237C624.143 79.3883 626.48 81.779 629.414 83.409C632.348 85.039 635.608 85.854 639.194 85.854C642.78 85.854 646.094 84.9303 649.137 83.083C652.179 81.127 654.733 78.0843 656.798 73.955L680.759 86.18C677.716 93.8953 672.554 99.872 665.274 104.11C657.993 108.348 649.354 110.467 639.357 110.467ZM733.298 110.467C721.997 110.467 713.195 107.696 706.892 102.154C700.59 96.5033 697.438 88.0273 697.438 76.726V0.930992H728.408V76.4C728.408 79.5513 729.278 82.0507 731.016 83.898C732.755 85.6367 734.983 86.506 737.699 86.506C741.394 86.506 744.545 85.5823 747.153 83.735L754.814 105.414C752.206 107.153 749.001 108.402 745.197 109.163C741.394 110.032 737.428 110.467 733.298 110.467ZM684.561 47.06V23.914H748.62V47.06H684.561ZM798.867 110.467C791.369 110.467 784.034 109.598 776.862 107.859C769.799 106.12 764.094 103.947 759.747 101.339L769.038 80.149C773.168 82.6483 778.003 84.6587 783.545 86.18C789.087 87.5927 794.521 88.299 799.845 88.299C805.061 88.299 808.647 87.7557 810.603 86.669C812.668 85.5823 813.7 84.1153 813.7 82.268C813.7 80.5293 812.722 79.2797 810.766 78.519C808.919 77.6497 806.42 76.9977 803.268 76.563C800.226 76.1283 796.857 75.6393 793.162 75.096C789.468 74.5527 785.719 73.8463 781.915 72.977C778.221 71.999 774.798 70.5863 771.646 68.739C768.604 66.783 766.159 64.175 764.311 60.915C762.464 57.655 761.54 53.5257 761.54 48.527C761.54 42.8763 763.17 37.8777 766.43 33.531C769.799 29.0757 774.689 25.5983 781.1 23.099C787.512 20.491 795.336 19.187 804.572 19.187C810.766 19.187 817.015 19.839 823.317 21.143C829.729 22.3383 835.108 24.1857 839.454 26.685L830.163 47.712C825.817 45.2127 821.47 43.5283 817.123 42.659C812.777 41.681 808.647 41.192 804.735 41.192C799.519 41.192 795.825 41.7897 793.651 42.985C791.587 44.1803 790.554 45.6473 790.554 47.386C790.554 49.1247 791.478 50.483 793.325 51.461C795.173 52.3303 797.618 53.0367 800.66 53.58C803.812 54.0147 807.235 54.5037 810.929 55.047C814.624 55.4817 818.319 56.188 822.013 57.166C825.817 58.144 829.24 59.611 832.282 61.567C835.434 63.4143 837.933 65.968 839.78 69.228C841.628 72.3793 842.551 76.4543 842.551 81.453C842.551 86.8863 840.867 91.7763 837.498 96.123C834.238 100.47 829.348 103.947 822.828 106.555C816.417 109.163 808.43 110.467 798.867 110.467ZM868.937 55.862C863.721 55.862 859.32 54.1233 855.734 50.646C852.148 47.1687 850.355 42.7677 850.355 37.443C850.355 31.901 852.148 27.5 855.734 24.24C859.32 20.8713 863.721 19.187 868.937 19.187C874.153 19.187 878.554 20.8713 882.14 24.24C885.726 27.5 887.519 31.901 887.519 37.443C887.519 42.7677 885.726 47.1687 882.14 50.646C878.554 54.1233 874.153 55.862 868.937 55.862ZM852.474 134.591L864.699 92.211L869.1 109.815C863.667 109.815 859.211 108.239 855.734 105.088C852.257 101.828 850.518 97.4813 850.518 92.048C850.518 86.3973 852.257 81.942 855.734 78.682C859.32 75.422 863.775 73.792 869.1 73.792C874.425 73.792 878.826 75.4763 882.303 78.845C885.78 82.105 887.519 86.506 887.519 92.048C887.519 93.5693 887.41 95.0907 887.193 96.612C886.976 98.1333 886.487 99.9807 885.726 102.154C884.965 104.327 883.77 107.207 882.14 110.793L871.871 134.591H852.474Z" fill="white" fill-opacity="0.05"/>
</svg>
