<svg width="48" height="49" viewBox="0 0 48 49" fill="none" xmlns="http://www.w3.org/2000/svg">
<rect y="1" width="48" height="48" rx="5" fill="#00FFFF"/>
<path d="M32.12 39L25.84 30C29.48 28.44 31.6 25.36 31.6 21.16C31.6 14.88 26.92 11 19.44 11H7.32V39H13.8V31.2H19.44H19.76L25.16 39H32.12ZM25.04 21.16C25.04 24.2 23.04 26.04 19.08 26.04H13.8V16.28H19.08C23.04 16.28 25.04 18.08 25.04 21.16ZM38.6541 39.32C40.8141 39.32 42.5341 37.68 42.5341 35.4C42.5341 33.08 40.8141 31.56 38.6541 31.56C36.4941 31.56 34.7741 33.08 34.7741 35.4C34.7741 37.68 36.4941 39.32 38.6541 39.32Z" fill="#1D1C24"/>
</svg>
